<svg width="1440" height="178" viewBox="0 0 1440 178" fill="none" xmlns="http://www.w3.org/2000/svg">
<g clip-path="url(#clip0_338_1059)">
<rect width="1440" height="178" fill="#0A8F60"/>
<path d="M1309.05 173.959C1296.08 123.455 1293.46 51.014 1343.97 38.0417C1394.48 25.0693 1420.76 88.9892 1433.73 139.494C1446.7 189.998 1398.48 39.5388 1347.97 52.5111C1297.46 65.4834 1322.03 224.464 1309.05 173.959Z" fill="#0A7E55"/>
<path d="M1454.06 99.9044C1466.42 150.562 1435.37 201.648 1384.71 214.007C1334.05 226.367 1282.97 195.319 1270.61 144.661C1258.25 94.0033 1316.26 153.446 1366.92 141.086C1417.58 128.727 1441.7 49.2464 1454.06 99.9044Z" fill="#D1A403"/>
<path d="M1372.35 158.518C1359.37 108.014 1356.76 35.573 1407.26 22.6006C1457.77 9.62829 1484.05 73.5482 1497.02 124.053C1509.99 174.557 1461.77 24.0977 1411.26 37.07C1360.76 50.0424 1385.32 209.023 1372.35 158.518Z" fill="#D1A403"/>
<path d="M1517.35 84.4635C1529.71 135.122 1498.66 186.207 1448 198.566C1397.34 210.926 1346.26 179.878 1333.9 129.22C1321.54 78.5624 1379.55 138.005 1430.21 125.645C1480.87 113.286 1504.99 33.8055 1517.35 84.4635Z" fill="#0A7E55"/>
<path d="M126.169 166.889C142.989 117.533 151.174 45.5083 101.817 28.6879C52.4594 11.8674 21.3366 73.5753 4.51646 122.932C-12.3037 172.288 47.3577 25.9861 96.7152 42.8066C146.073 59.627 109.349 216.246 126.169 166.889Z" fill="#0A7E55"/>
<path d="M-12.7149 81.8928C-28.9356 131.45 -1.91066 184.773 47.6471 200.994C97.2048 217.215 150.529 190.191 166.749 140.634C182.97 91.0776 120.554 145.879 70.9964 129.658C21.4386 113.437 3.50576 32.3361 -12.7149 81.8928Z" fill="#D1A403"/>
<path d="M64.2434 146.621C81.0635 97.2644 89.2486 25.2399 39.8911 8.4195C-9.46643 -8.40094 -40.5892 53.3069 -57.4093 102.663C-74.2294 152.02 -14.5681 5.71776 34.7895 22.5382C84.147 39.3587 47.4233 195.977 64.2434 146.621Z" fill="#D1A403"/>
<path d="M-74.631 61.6273C-90.8517 111.184 -63.8267 164.507 -14.2689 180.728C35.2888 196.949 88.6127 169.926 104.833 120.369C121.054 70.8121 58.6381 125.614 9.08034 109.393C-40.4774 93.1717 -58.4103 12.0705 -74.631 61.6273Z" fill="#0A7E55"/>
</g>
<defs>
<clipPath id="clip0_338_1059">
<rect width="1440" height="178" fill="white"/>
</clipPath>
</defs>
</svg>
