<svg width="194" height="178" viewBox="0 0 194 178" fill="none" xmlns="http://www.w3.org/2000/svg">
<path d="M126.167 166.889C142.987 117.533 151.172 45.5082 101.815 28.6878C52.4574 11.8673 21.3346 73.5752 4.51451 122.932C-12.3056 172.288 47.3558 25.9861 96.7133 42.8065C146.071 59.6269 109.347 216.246 126.167 166.889Z" fill="#0A7E55"/>
<path d="M-12.7149 81.8928C-28.9356 131.45 -1.91066 184.773 47.6471 200.994C97.2048 217.215 150.529 190.191 166.749 140.634C182.97 91.0776 120.554 145.879 70.9964 129.658C21.4386 113.437 3.50576 32.3361 -12.7149 81.8928Z" fill="#D1A403"/>
<path d="M64.2434 146.621C81.0635 97.2643 89.2486 25.2399 39.8911 8.41947C-9.46643 -8.40097 -40.5892 53.3069 -57.4093 102.663C-74.2294 152.02 -14.5681 5.71773 34.7895 22.5382C84.147 39.3586 47.4233 195.977 64.2434 146.621Z" fill="#D1A403"/>
<path d="M-74.631 61.6273C-90.8517 111.184 -63.8267 164.507 -14.2689 180.728C35.2888 196.949 88.6127 169.925 104.833 120.369C121.054 70.8121 58.6381 125.614 9.08034 109.393C-40.4774 93.1717 -58.4103 12.0705 -74.631 61.6273Z" fill="#0A7E55"/>
</svg>
