<svg width="190" height="178" viewBox="0 0 190 178" fill="none" xmlns="http://www.w3.org/2000/svg">
<path d="M59.0547 173.959C46.0827 123.455 43.4644 51.014 93.97 38.0417C144.476 25.0694 170.757 88.9893 183.73 139.494C196.702 189.998 148.476 39.5388 97.9701 52.5111C47.4645 65.4835 72.0268 224.464 59.0547 173.959Z" fill="#0A7E55"/>
<path d="M204.059 99.9044C216.418 150.562 185.37 201.648 134.711 214.007C84.0515 226.367 32.9652 195.319 20.6062 144.661C8.24719 94.0034 66.261 153.446 116.92 141.086C167.579 128.727 191.7 49.2464 204.059 99.9044Z" fill="#D1A403"/>
<path d="M122.346 158.518C109.374 108.014 106.755 35.573 157.261 22.6007C207.767 9.62833 234.048 73.5482 247.021 124.053C259.993 174.557 211.767 24.0978 161.261 37.0701C110.755 50.0424 135.318 209.023 122.346 158.518Z" fill="#D1A403"/>
<path d="M267.35 84.4635C279.709 135.122 248.661 186.207 198.002 198.566C147.343 210.926 96.2563 179.878 83.8972 129.22C71.5382 78.5624 129.552 138.005 180.211 125.645C230.87 113.286 254.991 33.8055 267.35 84.4635Z" fill="#0A7E55"/>
</svg>
