<svg width="50" height="50" viewBox="0 0 50 50" fill="none" xmlns="http://www.w3.org/2000/svg">
<circle cx="25" cy="25" r="24.5" fill="white" stroke="#84CBB2"/>
<path d="M15 15H17.1884C17.9384 15 18.3134 15 18.5846 15.2118C18.8559 15.4236 18.9468 15.7874 19.1287 16.5149L19.3937 17.5746C19.6107 18.4427 19.7192 18.8768 19.9614 19.1998C20.1742 19.4836 20.4587 19.7057 20.7857 19.8434C21.1578 20 21.6052 20 22.5 20V20" stroke="#0A8F60" stroke-width="2" stroke-linecap="round"/>
<path d="M32.5 31.25H19.4386C18.9444 31.25 18.6972 31.25 18.5203 31.1802C18.1567 31.0367 17.9101 30.6945 17.8889 30.3042C17.8786 30.1142 17.9567 29.8798 18.113 29.4109V29.4109C18.2864 28.8909 18.373 28.6309 18.5076 28.421C18.7816 27.9933 19.208 27.686 19.7004 27.5612C19.9421 27.5 20.2162 27.5 20.7642 27.5H27.5" stroke="#0A8F60" stroke-width="2" stroke-linecap="round" stroke-linejoin="round"/>
<path d="M30.0139 27.5H21.6943C20.7166 27.5 19.8822 26.7932 19.7215 25.8288L19.0411 21.7466C18.8887 20.8323 19.5938 20 20.5207 20H33.382C34.1253 20 34.6088 20.7823 34.2764 21.4472L31.8028 26.3944C31.464 27.072 30.7715 27.5 30.0139 27.5Z" stroke="#0A8F60" stroke-width="2" stroke-linecap="round"/>
<circle cx="31.25" cy="35" r="1.25" fill="#0A8F60"/>
<circle cx="21.25" cy="35" r="1.25" fill="#0A8F60"/>
</svg>
