<svg width="187" height="25" viewBox="0 0 187 25" fill="none" xmlns="http://www.w3.org/2000/svg">
<path d="M23.175 3.275C23.6417 3.34167 23.9583 3.48333 24.125 3.7C24.3083 3.91667 24.4 4.2 24.4 4.55C24.4 5.7 23.7833 6.23333 22.55 6.15L21.675 6.075C20.6917 5.99167 19.7083 5.925 18.725 5.875C17.7583 5.825 16.7417 5.8 15.675 5.8H14.55C14.35 8.26667 14.1417 10.5167 13.925 12.55L18.225 12.475C18.8417 12.475 19.25 12.5833 19.45 12.8C19.6667 13.0167 19.775 13.3083 19.775 13.675C19.775 14.2417 19.6083 14.6917 19.275 15.025C18.9417 15.3417 18.4667 15.5 17.85 15.5H13.575L13.425 16.575C13.075 19.325 12.325 21.2833 11.175 22.45C10.0417 23.6167 8.475 24.2 6.475 24.2C5.34167 24.2 4.3 23.9583 3.35 23.475C2.4 22.975 1.7 22.375 1.25 21.675C1.06667 21.3917 0.975 21.05 0.975 20.65C0.975 20.25 1.06667 19.9 1.25 19.6C1.45 19.3 1.69167 19.15 1.975 19.15C2.175 19.15 2.36667 19.2167 2.55 19.35C2.75 19.4833 3 19.7417 3.3 20.125C4.1 21.175 5.09167 21.7 6.275 21.7C7.225 21.7 8.01667 21.3167 8.65 20.55C9.3 19.7667 9.71667 18.5417 9.9 16.875L10.05 15.5H8.85C8.46667 15.5 8.13333 15.3917 7.85 15.175C7.58333 14.9583 7.45 14.65 7.45 14.25C7.45 13.7333 7.58333 13.3417 7.85 13.075C8.11667 12.7917 8.50833 12.65 9.025 12.65C9.49167 12.65 9.95 12.6417 10.4 12.625C10.6 10.7917 10.8167 8.56667 11.05 5.95C9.25 6.11667 7.98333 6.40833 7.25 6.825C6.51667 7.24167 6.15 7.85833 6.15 8.675C6.15 9.24167 6.31667 9.78333 6.65 10.3C6.75 10.45 6.8 10.6 6.8 10.75C6.8 11.05 6.63333 11.3167 6.3 11.55C5.96667 11.7667 5.59167 11.875 5.175 11.875C4.725 11.875 4.34167 11.7417 4.025 11.475C3.825 11.3083 3.63333 10.9667 3.45 10.45C3.26667 9.93333 3.175 9.35833 3.175 8.725C3.175 6.65833 4.23333 5.15833 6.35 4.225C8.48333 3.29167 11.5917 2.825 15.675 2.825C18.5083 2.825 21.0083 2.975 23.175 3.275ZM21.7729 24.125C21.1395 24.125 20.6895 23.7917 20.4229 23.125C20.1729 22.4583 20.0479 21.3917 20.0479 19.925C20.0479 17.7583 20.3562 15.7 20.9729 13.75C21.1229 13.2667 21.3645 12.9167 21.6979 12.7C22.0479 12.4667 22.5312 12.35 23.1479 12.35C23.4812 12.35 23.7145 12.3917 23.8479 12.475C23.9812 12.5583 24.0479 12.7167 24.0479 12.95C24.0479 13.2167 23.9229 13.8167 23.6729 14.75C23.5062 15.4167 23.3729 16 23.2729 16.5C23.1729 17 23.0895 17.6167 23.0229 18.35C23.5729 16.9167 24.1895 15.75 24.8729 14.85C25.5562 13.95 26.2229 13.3083 26.8729 12.925C27.5395 12.5417 28.1479 12.35 28.6979 12.35C29.7812 12.35 30.3229 12.8917 30.3229 13.975C30.3229 14.1917 30.2479 14.7167 30.0979 15.55C29.9645 16.2167 29.8979 16.6333 29.8979 16.8C29.8979 17.3833 30.1062 17.675 30.5229 17.675C30.9895 17.675 31.5895 17.3083 32.3229 16.575C32.5395 16.3583 32.7645 16.25 32.9979 16.25C33.2145 16.25 33.3812 16.35 33.4979 16.55C33.6312 16.7333 33.6979 16.9833 33.6979 17.3C33.6979 17.9167 33.5312 18.4 33.1979 18.75C32.7312 19.2333 32.1812 19.65 31.5479 20C30.9312 20.3333 30.2729 20.5 29.5729 20.5C28.6895 20.5 28.0145 20.275 27.5479 19.825C27.0979 19.375 26.8729 18.7667 26.8729 18C26.8729 17.75 26.8979 17.5 26.9479 17.25C26.9812 16.9167 26.9979 16.6917 26.9979 16.575C26.9979 16.3083 26.9062 16.175 26.7229 16.175C26.4729 16.175 26.1395 16.4583 25.7229 17.025C25.3229 17.575 24.9229 18.3083 24.5229 19.225C24.1229 20.1417 23.7979 21.1083 23.5479 22.125C23.3645 22.9083 23.1479 23.4417 22.8979 23.725C22.6645 23.9917 22.2895 24.125 21.7729 24.125ZM42.5248 18.425C42.7415 18.425 42.9081 18.525 43.0248 18.725C43.1581 18.925 43.2248 19.2 43.2248 19.55C43.2248 20.2167 43.0665 20.7333 42.7498 21.1C42.1331 21.85 41.2581 22.5417 40.1248 23.175C39.0081 23.8083 37.8081 24.125 36.5248 24.125C34.7748 24.125 33.4165 23.65 32.4498 22.7C31.4831 21.75 30.9998 20.45 30.9998 18.8C30.9998 17.65 31.2415 16.5833 31.7248 15.6C32.2081 14.6 32.8748 13.8083 33.7248 13.225C34.5915 12.6417 35.5665 12.35 36.6498 12.35C37.6165 12.35 38.3915 12.6417 38.9748 13.225C39.5581 13.7917 39.8498 14.5667 39.8498 15.55C39.8498 16.7 39.4331 17.6917 38.5998 18.525C37.7831 19.3417 36.3915 19.9917 34.4248 20.475C34.8415 21.2417 35.6331 21.625 36.7998 21.625C37.5498 21.625 38.3998 21.3667 39.3498 20.85C40.3165 20.3167 41.1498 19.625 41.8498 18.775C42.0498 18.5417 42.2748 18.425 42.5248 18.425ZM36.2248 14.8C35.6081 14.8 35.0831 15.1583 34.6498 15.875C34.2331 16.5917 34.0248 17.4583 34.0248 18.475V18.525C35.0081 18.2917 35.7831 17.9417 36.3498 17.475C36.9165 17.0083 37.1998 16.4667 37.1998 15.85C37.1998 15.5333 37.1081 15.2833 36.9248 15.1C36.7581 14.9 36.5248 14.8 36.2248 14.8ZM45.8393 24.675C44.9726 24.675 44.3059 24.475 43.8393 24.075C43.3893 23.675 43.1643 23.225 43.1643 22.725C43.1643 22.2917 43.3226 21.9167 43.6393 21.6C43.9559 21.2833 44.4226 21.125 45.0393 21.125C45.2559 21.125 45.5059 21.15 45.7893 21.2C46.0893 21.2333 46.3143 21.2583 46.4643 21.275C46.4476 20.8417 46.3476 20.4333 46.1643 20.05C45.9976 19.6667 45.7809 19.3 45.5143 18.95C45.2476 18.5833 44.9976 18.2667 44.7643 18C44.2476 18.9833 43.7309 19.8 43.2143 20.45C42.7143 21.1 42.1643 21.7167 41.5643 22.3C41.2643 22.6 40.9476 22.75 40.6143 22.75C40.3476 22.75 40.1309 22.6583 39.9643 22.475C39.7976 22.275 39.7143 22.0333 39.7143 21.75C39.7143 21.4167 39.8309 21.1083 40.0643 20.825L40.3893 20.425C41.3059 19.2917 41.9976 18.3583 42.4643 17.625C42.7476 17.1417 43.0809 16.5 43.4643 15.7C43.8476 14.8833 44.2226 14.0417 44.5893 13.175C44.9059 12.4417 45.5643 12.075 46.5643 12.075C47.0309 12.075 47.3559 12.1167 47.5393 12.2C47.7226 12.2833 47.8143 12.4167 47.8143 12.6C47.8143 12.7 47.7809 12.8583 47.7143 13.075C47.6476 13.2917 47.5559 13.5083 47.4393 13.725C47.1393 14.325 46.9893 14.8333 46.9893 15.25C46.9893 15.5 47.0726 15.775 47.2393 16.075C47.4226 16.375 47.6976 16.75 48.0643 17.2C48.5976 17.9 48.9976 18.5 49.2643 19C49.5476 19.4833 49.6893 20.0167 49.6893 20.6C49.6893 20.7667 49.6726 21 49.6393 21.3C50.4559 20.9833 51.4143 20.1417 52.5143 18.775C52.7143 18.5417 52.9393 18.425 53.1893 18.425C53.4059 18.425 53.5726 18.525 53.6893 18.725C53.8226 18.925 53.8893 19.2 53.8893 19.55C53.8893 20.1833 53.7309 20.7 53.4143 21.1C52.5809 22.1333 51.7809 22.8417 51.0143 23.225C50.2643 23.5917 49.3309 23.7917 48.2143 23.825C47.5476 24.3917 46.7559 24.675 45.8393 24.675ZM65.7332 18.425C65.9499 18.425 66.1165 18.525 66.2332 18.725C66.3665 18.925 66.4332 19.2 66.4332 19.55C66.4332 20.2167 66.2749 20.7333 65.9582 21.1C65.1915 21.9833 64.3999 22.7083 63.5832 23.275C62.7832 23.8417 61.8665 24.125 60.8332 24.125C59.9832 24.125 59.3415 23.8833 58.9082 23.4C58.4749 22.9 58.2582 22.1833 58.2582 21.25C58.2582 20.7833 58.3749 19.95 58.6082 18.75C58.8249 17.7 58.9332 16.975 58.9332 16.575C58.9332 16.3083 58.8415 16.175 58.6582 16.175C58.4415 16.175 58.1332 16.4583 57.7332 17.025C57.3332 17.575 56.9332 18.3083 56.5332 19.225C56.1332 20.1417 55.8082 21.1083 55.5582 22.125C55.2415 23.4583 54.4582 24.125 53.2082 24.125C52.7082 24.125 52.3749 23.95 52.2082 23.6C52.0582 23.2333 51.9832 22.5833 51.9832 21.65C51.9832 21.1167 51.9915 20.6917 52.0082 20.375L52.0332 18.375C52.0332 15.8083 52.2915 13.1333 52.8082 10.35C53.3415 7.56667 54.1165 5.23333 55.1332 3.35C56.1665 1.45 57.3999 0.499999 58.8332 0.499999C59.5999 0.499999 60.2165 0.833332 60.6832 1.5C61.1665 2.15 61.4082 3 61.4082 4.05C61.4082 5.73333 60.9165 7.48333 59.9332 9.3C58.9499 11.1 57.3499 13.2083 55.1332 15.625C55.0832 16.4917 55.0582 17.3833 55.0582 18.3C55.6082 16.8833 56.2165 15.7333 56.8832 14.85C57.5665 13.95 58.2332 13.3083 58.8832 12.925C59.5499 12.5417 60.1582 12.35 60.7082 12.35C61.7915 12.35 62.3332 12.8917 62.3332 13.975C62.3332 14.625 62.1499 15.8 61.7832 17.5C61.4665 18.95 61.3082 19.9083 61.3082 20.375C61.3082 21.0417 61.5499 21.375 62.0332 21.375C62.3665 21.375 62.7582 21.175 63.2082 20.775C63.6749 20.3583 64.2915 19.6917 65.0582 18.775C65.2582 18.5417 65.4832 18.425 65.7332 18.425ZM58.3082 2.975C58.0082 2.975 57.6749 3.40833 57.3082 4.275C56.9415 5.125 56.5832 6.28333 56.2332 7.75C55.8999 9.2 55.6249 10.7833 55.4082 12.5C56.4415 11.2833 57.2915 9.95833 57.9582 8.525C58.6415 7.09167 58.9832 5.79167 58.9832 4.625C58.9832 4.09167 58.9249 3.68333 58.8082 3.4C58.6915 3.11667 58.5249 2.975 58.3082 2.975ZM85.382 3.275C85.8487 3.34167 86.1654 3.48333 86.332 3.7C86.5154 3.91667 86.607 4.2 86.607 4.55C86.607 5.7 85.9904 6.23333 84.757 6.15L83.882 6.075C82.8987 5.99167 81.9154 5.925 80.932 5.875C79.9654 5.825 78.9487 5.8 77.882 5.8H76.757C76.557 8.26667 76.3487 10.5167 76.132 12.55L80.432 12.475C81.0487 12.475 81.457 12.5833 81.657 12.8C81.8737 13.0167 81.982 13.3083 81.982 13.675C81.982 14.2417 81.8154 14.6917 81.482 15.025C81.1487 15.3417 80.6737 15.5 80.057 15.5H75.782L75.632 16.575C75.282 19.325 74.532 21.2833 73.382 22.45C72.2487 23.6167 70.682 24.2 68.682 24.2C67.5487 24.2 66.507 23.9583 65.557 23.475C64.607 22.975 63.907 22.375 63.457 21.675C63.2737 21.3917 63.182 21.05 63.182 20.65C63.182 20.25 63.2737 19.9 63.457 19.6C63.657 19.3 63.8987 19.15 64.182 19.15C64.382 19.15 64.5737 19.2167 64.757 19.35C64.957 19.4833 65.207 19.7417 65.507 20.125C66.307 21.175 67.2987 21.7 68.482 21.7C69.432 21.7 70.2237 21.3167 70.857 20.55C71.507 19.7667 71.9237 18.5417 72.107 16.875L72.257 15.5H71.057C70.6737 15.5 70.3404 15.3917 70.057 15.175C69.7904 14.9583 69.657 14.65 69.657 14.25C69.657 13.7333 69.7904 13.3417 70.057 13.075C70.3237 12.7917 70.7154 12.65 71.232 12.65C71.6987 12.65 72.157 12.6417 72.607 12.625C72.807 10.7917 73.0237 8.56667 73.257 5.95C71.457 6.11667 70.1904 6.40833 69.457 6.825C68.7237 7.24167 68.357 7.85833 68.357 8.675C68.357 9.24167 68.5237 9.78333 68.857 10.3C68.957 10.45 69.007 10.6 69.007 10.75C69.007 11.05 68.8404 11.3167 68.507 11.55C68.1737 11.7667 67.7987 11.875 67.382 11.875C66.932 11.875 66.5487 11.7417 66.232 11.475C66.032 11.3083 65.8404 10.9667 65.657 10.45C65.4737 9.93333 65.382 9.35833 65.382 8.725C65.382 6.65833 66.4404 5.15833 68.557 4.225C70.6904 3.29167 73.7987 2.825 77.882 2.825C80.7154 2.825 83.2154 2.975 85.382 3.275ZM84.401 24.125C83.3676 24.125 82.5426 23.75 81.926 23C81.3093 22.25 81.001 21.2667 81.001 20.05C81.001 18.7167 81.3093 17.4583 81.926 16.275C82.5426 15.075 83.3593 14.1167 84.376 13.4C85.4093 12.6667 86.501 12.3 87.651 12.3C88.0176 12.3 88.2593 12.375 88.376 12.525C88.5093 12.6583 88.6176 12.9083 88.701 13.275C89.051 13.2083 89.4176 13.175 89.801 13.175C90.6176 13.175 91.026 13.4667 91.026 14.05C91.026 14.4 90.901 15.2333 90.651 16.55C90.2676 18.4667 90.076 19.8 90.076 20.55C90.076 20.8 90.1343 21 90.251 21.15C90.3843 21.3 90.551 21.375 90.751 21.375C91.0676 21.375 91.451 21.175 91.901 20.775C92.351 20.3583 92.9593 19.6917 93.726 18.775C93.926 18.5417 94.151 18.425 94.401 18.425C94.6176 18.425 94.7843 18.525 94.901 18.725C95.0343 18.925 95.101 19.2 95.101 19.55C95.101 20.2167 94.9426 20.7333 94.626 21.1C93.9426 21.95 93.2176 22.6667 92.451 23.25C91.6843 23.8333 90.9426 24.125 90.226 24.125C89.676 24.125 89.1676 23.9417 88.701 23.575C88.251 23.1917 87.9093 22.675 87.676 22.025C86.8093 23.425 85.7176 24.125 84.401 24.125ZM85.301 21.6C85.6676 21.6 86.0176 21.3833 86.351 20.95C86.6843 20.5167 86.926 19.9417 87.076 19.225L88.001 14.625C87.301 14.6417 86.651 14.9083 86.051 15.425C85.4676 15.925 85.001 16.5917 84.651 17.425C84.301 18.2583 84.126 19.1417 84.126 20.075C84.126 20.5917 84.226 20.975 84.426 21.225C84.6426 21.475 84.9343 21.6 85.301 21.6ZM94.8441 24.125C94.2108 24.125 93.7608 23.7917 93.4941 23.125C93.2441 22.4583 93.1191 21.3917 93.1191 19.925C93.1191 17.7583 93.4275 15.7 94.0441 13.75C94.1941 13.2667 94.4358 12.9167 94.7691 12.7C95.1191 12.4667 95.6025 12.35 96.2191 12.35C96.5525 12.35 96.7858 12.3917 96.9191 12.475C97.0525 12.5583 97.1191 12.7167 97.1191 12.95C97.1191 13.2167 96.9941 13.8167 96.7441 14.75C96.5775 15.4167 96.4441 16 96.3441 16.5C96.2441 17 96.1608 17.6167 96.0941 18.35C96.6441 16.9167 97.2608 15.75 97.9441 14.85C98.6275 13.95 99.2941 13.3083 99.9441 12.925C100.611 12.5417 101.219 12.35 101.769 12.35C102.852 12.35 103.394 12.8917 103.394 13.975C103.394 14.1917 103.319 14.7167 103.169 15.55C103.036 16.2167 102.969 16.6333 102.969 16.8C102.969 17.3833 103.177 17.675 103.594 17.675C104.061 17.675 104.661 17.3083 105.394 16.575C105.611 16.3583 105.836 16.25 106.069 16.25C106.286 16.25 106.452 16.35 106.569 16.55C106.702 16.7333 106.769 16.9833 106.769 17.3C106.769 17.9167 106.602 18.4 106.269 18.75C105.802 19.2333 105.252 19.65 104.619 20C104.002 20.3333 103.344 20.5 102.644 20.5C101.761 20.5 101.086 20.275 100.619 19.825C100.169 19.375 99.9441 18.7667 99.9441 18C99.9441 17.75 99.9691 17.5 100.019 17.25C100.052 16.9167 100.069 16.6917 100.069 16.575C100.069 16.3083 99.9775 16.175 99.7941 16.175C99.5441 16.175 99.2108 16.4583 98.7941 17.025C98.3941 17.575 97.9941 18.3083 97.5941 19.225C97.1941 20.1417 96.8691 21.1083 96.6191 22.125C96.4358 22.9083 96.2191 23.4417 95.9691 23.725C95.7358 23.9917 95.3608 24.125 94.8441 24.125ZM113.396 19.175C113.613 19.175 113.779 19.275 113.896 19.475C114.029 19.675 114.096 19.95 114.096 20.3C114.096 20.9 113.954 21.4167 113.671 21.85C113.204 22.5667 112.588 23.125 111.821 23.525C111.071 23.925 110.171 24.125 109.121 24.125C107.521 24.125 106.279 23.65 105.396 22.7C104.513 21.7333 104.071 20.4333 104.071 18.8C104.071 17.65 104.313 16.5833 104.796 15.6C105.279 14.6 105.946 13.8083 106.796 13.225C107.663 12.6417 108.638 12.35 109.721 12.35C110.688 12.35 111.463 12.6417 112.046 13.225C112.629 13.7917 112.921 14.5667 112.921 15.55C112.921 16.7 112.504 17.6917 111.671 18.525C110.854 19.3417 109.454 19.9917 107.471 20.475C107.871 21.2417 108.546 21.625 109.496 21.625C110.179 21.625 110.738 21.4667 111.171 21.15C111.621 20.8333 112.138 20.3 112.721 19.55C112.921 19.3 113.146 19.175 113.396 19.175ZM109.296 14.8C108.679 14.8 108.154 15.1583 107.721 15.875C107.304 16.5917 107.096 17.4583 107.096 18.475V18.525C108.079 18.2917 108.854 17.9417 109.421 17.475C109.988 17.0083 110.271 16.4667 110.271 15.85C110.271 15.5333 110.179 15.2833 109.996 15.1C109.829 14.9 109.596 14.8 109.296 14.8Z" fill="#0A8F60"/>
<path d="M125.941 24.125C125.324 24.125 124.882 23.9917 124.616 23.725C124.349 23.4417 124.216 22.9167 124.216 22.15C124.216 21.6333 124.266 20.975 124.366 20.175C124.482 19.3583 124.666 18.2417 124.916 16.825C125.349 14.2083 125.691 11.9417 125.941 10.025C126.091 8.825 126.166 7.825 126.166 7.025C126.166 6.275 125.891 5.9 125.341 5.9C124.907 5.9 124.382 6.125 123.766 6.575C123.166 7.00833 122.499 7.70833 121.766 8.675C121.532 8.99167 121.274 9.15 120.991 9.15C120.757 9.15 120.549 9.04167 120.366 8.825C120.199 8.59167 120.116 8.33333 120.116 8.05C120.116 7.78333 120.166 7.51667 120.266 7.25C120.382 6.96667 120.566 6.65 120.816 6.3C121.616 5.18333 122.507 4.325 123.491 3.725C124.474 3.10833 125.457 2.8 126.441 2.8C127.357 2.8 128.057 3.09167 128.541 3.675C129.041 4.25833 129.291 5.10833 129.291 6.225C129.291 6.675 129.249 7.20833 129.166 7.825C129.082 8.425 129.007 8.91667 128.941 9.3C128.874 9.68333 128.824 9.95 128.791 10.1C129.741 7.38333 130.807 5.49167 131.991 4.425C133.174 3.34167 134.474 2.8 135.891 2.8C136.974 2.8 137.824 3.18333 138.441 3.95C139.074 4.71667 139.391 5.8 139.391 7.2C139.391 7.75 139.316 8.43333 139.166 9.25C139.999 6.95 140.974 5.3 142.091 4.3C143.207 3.3 144.491 2.8 145.941 2.8C147.107 2.8 147.999 3.175 148.616 3.925C149.249 4.675 149.566 5.725 149.566 7.075C149.566 7.80833 149.457 8.7 149.241 9.75L147.716 16.9C147.549 17.7333 147.466 18.45 147.466 19.05C147.466 19.75 147.624 20.275 147.941 20.625C148.274 20.975 148.732 21.15 149.316 21.15C149.866 21.15 150.399 20.9667 150.916 20.6C151.449 20.2333 152.074 19.625 152.791 18.775C152.991 18.5417 153.216 18.425 153.466 18.425C153.682 18.425 153.849 18.525 153.966 18.725C154.099 18.925 154.166 19.2 154.166 19.55C154.166 20.2 154.007 20.7167 153.691 21.1C152.824 22.15 151.966 22.9167 151.116 23.4C150.266 23.8833 149.374 24.125 148.441 24.125C147.024 24.125 145.916 23.7083 145.116 22.875C144.316 22.025 143.916 20.8917 143.916 19.475C143.916 18.4917 144.116 17.0667 144.516 15.2L145.516 10.625C145.549 10.475 145.607 10.2083 145.691 9.825C145.774 9.44167 145.841 9.08333 145.891 8.75C145.941 8.4 145.966 8.05833 145.966 7.725C145.966 7.14167 145.849 6.70833 145.616 6.425C145.399 6.125 145.082 5.975 144.666 5.975C143.882 5.975 143.057 6.48333 142.191 7.5C141.341 8.5 140.524 10.1667 139.741 12.5C138.974 14.8333 138.349 17.8667 137.866 21.6C137.749 22.6 137.541 23.275 137.241 23.625C136.957 23.9583 136.491 24.125 135.841 24.125C135.274 24.125 134.857 23.9917 134.591 23.725C134.341 23.4583 134.216 22.9583 134.216 22.225C134.216 21.5417 134.307 20.65 134.491 19.55C134.674 18.4333 134.907 17.125 135.191 15.625C135.957 11.5917 136.341 8.99167 136.341 7.825C136.341 7.19167 136.216 6.725 135.966 6.425C135.732 6.125 135.374 5.975 134.891 5.975C134.074 5.975 133.232 6.44167 132.366 7.375C131.499 8.29167 130.649 9.93333 129.816 12.3C128.999 14.65 128.316 17.8333 127.766 21.85C127.649 22.7 127.474 23.2917 127.241 23.625C127.024 23.9583 126.591 24.125 125.941 24.125ZM155.226 24.125C154.193 24.125 153.368 23.75 152.751 23C152.135 22.25 151.826 21.2667 151.826 20.05C151.826 18.7167 152.135 17.4583 152.751 16.275C153.368 15.075 154.185 14.1167 155.201 13.4C156.235 12.6667 157.326 12.3 158.476 12.3C158.843 12.3 159.085 12.375 159.201 12.525C159.335 12.6583 159.443 12.9083 159.526 13.275C159.876 13.2083 160.243 13.175 160.626 13.175C161.443 13.175 161.851 13.4667 161.851 14.05C161.851 14.4 161.726 15.2333 161.476 16.55C161.093 18.4667 160.901 19.8 160.901 20.55C160.901 20.8 160.96 21 161.076 21.15C161.21 21.3 161.376 21.375 161.576 21.375C161.893 21.375 162.276 21.175 162.726 20.775C163.176 20.3583 163.785 19.6917 164.551 18.775C164.751 18.5417 164.976 18.425 165.226 18.425C165.443 18.425 165.61 18.525 165.726 18.725C165.86 18.925 165.926 19.2 165.926 19.55C165.926 20.2167 165.768 20.7333 165.451 21.1C164.768 21.95 164.043 22.6667 163.276 23.25C162.51 23.8333 161.768 24.125 161.051 24.125C160.501 24.125 159.993 23.9417 159.526 23.575C159.076 23.1917 158.735 22.675 158.501 22.025C157.635 23.425 156.543 24.125 155.226 24.125ZM156.126 21.6C156.493 21.6 156.843 21.3833 157.176 20.95C157.51 20.5167 157.751 19.9417 157.901 19.225L158.826 14.625C158.126 14.6417 157.476 14.9083 156.876 15.425C156.293 15.925 155.826 16.5917 155.476 17.425C155.126 18.2583 154.951 19.1417 154.951 20.075C154.951 20.5917 155.051 20.975 155.251 21.225C155.468 21.475 155.76 21.6 156.126 21.6ZM173.994 15.775C174.361 15.775 174.669 15.9083 174.919 16.175C175.186 16.425 175.319 16.7417 175.319 17.125C175.319 17.3417 175.269 17.575 175.169 17.825C174.903 18.4417 174.528 18.9583 174.044 19.375C173.561 19.7917 173.028 20 172.444 20C171.978 20 171.578 19.8333 171.244 19.5C170.928 19.1667 170.769 18.7167 170.769 18.15C170.769 17.8333 170.786 17.4917 170.819 17.125C170.853 16.8583 170.869 16.675 170.869 16.575C170.869 16.4417 170.836 16.3417 170.769 16.275C170.719 16.2083 170.653 16.175 170.569 16.175C170.336 16.175 170.019 16.4583 169.619 17.025C169.219 17.575 168.819 18.3083 168.419 19.225C168.019 20.1417 167.694 21.1083 167.444 22.125C167.261 22.925 167.053 23.4583 166.819 23.725C166.586 23.9917 166.203 24.125 165.669 24.125C165.036 24.125 164.586 23.7917 164.319 23.125C164.069 22.4583 163.944 21.3917 163.944 19.925C163.944 17.7583 164.253 15.7 164.869 13.75C165.019 13.2667 165.261 12.9167 165.594 12.7C165.944 12.4667 166.428 12.35 167.044 12.35C167.378 12.35 167.611 12.3917 167.744 12.475C167.878 12.5583 167.944 12.7167 167.944 12.95C167.944 13.2167 167.819 13.8167 167.569 14.75C167.403 15.4167 167.269 16 167.169 16.5C167.069 17 166.986 17.6167 166.919 18.35C167.469 16.9167 168.086 15.75 168.769 14.85C169.453 13.95 170.119 13.3083 170.769 12.925C171.419 12.5417 172.011 12.35 172.544 12.35C173.028 12.35 173.394 12.4917 173.644 12.775C173.911 13.0417 174.044 13.4417 174.044 13.975C174.044 14.2917 173.953 14.8917 173.769 15.775H173.994ZM180.397 14.725C180.364 15.5583 180.347 16.2083 180.347 16.675C180.347 17.875 180.406 18.8167 180.522 19.5C180.656 20.1667 180.864 20.65 181.147 20.95C181.447 21.2333 181.856 21.375 182.372 21.375C182.639 21.375 182.956 21.2917 183.322 21.125C183.689 20.9583 184.022 20.7417 184.322 20.475C184.506 20.3083 184.689 20.225 184.872 20.225C185.072 20.225 185.231 20.3417 185.347 20.575C185.481 20.7917 185.547 21.0583 185.547 21.375C185.547 21.6917 185.481 22 185.347 22.3C185.231 22.6 185.047 22.85 184.797 23.05C183.931 23.7667 182.947 24.125 181.847 24.125C180.264 24.125 179.106 23.4667 178.372 22.15C177.639 20.8167 177.272 19.0833 177.272 16.95C177.272 16.2167 177.297 15.475 177.347 14.725H176.372C175.872 14.725 175.531 14.6333 175.347 14.45C175.181 14.2667 175.097 13.975 175.097 13.575C175.097 12.6417 175.472 12.175 176.222 12.175H177.647C177.931 10.3417 178.364 8.66667 178.947 7.15C179.531 5.63333 180.231 4.425 181.047 3.525C181.881 2.625 182.772 2.175 183.722 2.175C184.422 2.175 184.972 2.48333 185.372 3.1C185.772 3.71667 185.972 4.49167 185.972 5.425C185.972 8.00833 184.889 10.2583 182.722 12.175H185.522C185.789 12.175 185.981 12.2333 186.097 12.35C186.214 12.4667 186.272 12.6833 186.272 13C186.272 14.15 185.331 14.725 183.447 14.725H180.397ZM183.047 4.575C182.797 4.575 182.514 4.89167 182.197 5.525C181.897 6.14167 181.606 7.00833 181.322 8.125C181.056 9.225 180.831 10.45 180.647 11.8C181.631 10.95 182.364 10 182.847 8.95C183.347 7.88333 183.597 6.91667 183.597 6.05C183.597 5.06667 183.414 4.575 183.047 4.575Z" fill="#D1A403"/>
</svg>
