<svg width="40" height="40" viewBox="0 0 40 40" fill="none" xmlns="http://www.w3.org/2000/svg">
<g clip-path="url(#clip0_955_6829)">
<path d="M15.1683 39.4839V26.1839H11.045V20.0723H15.1683V17.4389C15.1683 10.6306 18.2483 7.4756 24.9317 7.4756C25.6 7.4756 26.5233 7.5456 27.3783 7.64727C28.0187 7.71316 28.654 7.82174 29.28 7.97227V13.5139C28.9181 13.4802 28.5551 13.4602 28.1917 13.4539C27.7845 13.4434 27.3773 13.4384 26.97 13.4389C25.7917 13.4389 24.8717 13.5989 24.1783 13.9539C23.7122 14.1878 23.3204 14.5467 23.0467 14.9906C22.6167 15.6906 22.4233 16.6489 22.4233 17.9106V20.0723H28.955L28.3117 23.5773L27.8333 26.1839H22.4233V39.9256C32.3267 38.7289 40 30.2973 40 20.0723C40 9.02727 31.045 0.0722656 20 0.0722656C8.955 0.0722656 0 9.02727 0 20.0723C0 29.4523 6.45667 37.3223 15.1683 39.4839Z" fill="#0866FF"/>
</g>
<defs>
<clipPath id="clip0_955_6829">
<rect width="40" height="40" fill="white"/>
</clipPath>
</defs>
</svg>
