<svg width="129" height="25" viewBox="0 0 129 25" fill="none" xmlns="http://www.w3.org/2000/svg">
<path d="M10.1443 6.62753C10.931 4.66653 11.3243 3.68604 12.0006 3.68604C12.6769 3.68604 13.0702 4.66653 13.8568 6.62753L13.8934 6.71885C14.3378 7.82672 14.56 8.38065 15.0129 8.71734C15.4657 9.05403 16.0602 9.10727 17.2491 9.21374L17.464 9.23299C19.4099 9.40726 20.3828 9.49439 20.5909 10.1134C20.7991 10.7324 20.0766 11.3897 18.6316 12.7044L18.1493 13.1432C17.4178 13.8087 17.052 14.1414 16.8815 14.5776C16.8497 14.6589 16.8233 14.7423 16.8024 14.8271C16.6903 15.2817 16.7975 15.7645 17.0117 16.7299L17.0783 17.0305C17.472 18.8048 17.6688 19.692 17.3252 20.0746C17.1967 20.2176 17.0298 20.3206 16.8444 20.3712C16.3482 20.5066 15.6437 19.9325 14.2348 18.7844C13.3096 18.0305 12.847 17.6536 12.3159 17.5688C12.107 17.5354 11.8941 17.5354 11.6852 17.5688C11.1541 17.6536 10.6915 18.0305 9.76638 18.7844C8.35742 19.9325 7.65295 20.5066 7.15675 20.3712C6.97133 20.3206 6.80442 20.2176 6.676 20.0746C6.33232 19.692 6.52915 18.8048 6.92283 17.0305L6.9895 16.7299C7.20371 15.7645 7.31082 15.2817 7.19876 14.8271C7.17786 14.7423 7.15142 14.6589 7.11962 14.5776C6.94915 14.1414 6.5834 13.8087 5.85189 13.1432L5.36961 12.7044C3.92456 11.3897 3.20204 10.7324 3.41022 10.1134C3.6184 9.49439 4.59131 9.40726 6.53712 9.23299L6.75206 9.21374C7.94097 9.10727 8.53543 9.05403 8.98828 8.71734C9.44113 8.38065 9.66333 7.82672 10.1077 6.71885L10.1443 6.62753Z" fill="#D1A403" stroke="#D1A403" stroke-width="2"/>
<path d="M36.1443 6.62753C36.931 4.66653 37.3243 3.68604 38.0006 3.68604C38.6769 3.68604 39.0702 4.66653 39.8568 6.62753L39.8934 6.71885C40.3378 7.82672 40.56 8.38065 41.0129 8.71734C41.4657 9.05403 42.0602 9.10727 43.2491 9.21374L43.464 9.23299C45.4099 9.40726 46.3828 9.49439 46.5909 10.1134C46.7991 10.7324 46.0766 11.3897 44.6316 12.7044L44.1493 13.1432C43.4178 13.8087 43.052 14.1414 42.8815 14.5776C42.8497 14.6589 42.8233 14.7423 42.8024 14.8271C42.6903 15.2817 42.7975 15.7645 43.0117 16.7299L43.0783 17.0305C43.472 18.8048 43.6688 19.692 43.3252 20.0746C43.1967 20.2176 43.0298 20.3206 42.8444 20.3712C42.3482 20.5066 41.6437 19.9325 40.2348 18.7844C39.3096 18.0305 38.847 17.6536 38.3159 17.5688C38.107 17.5354 37.8941 17.5354 37.6852 17.5688C37.1541 17.6536 36.6915 18.0305 35.7664 18.7844C34.3574 19.9325 33.6529 20.5066 33.1567 20.3712C32.9713 20.3206 32.8044 20.2176 32.676 20.0746C32.3323 19.692 32.5292 18.8048 32.9228 17.0305L32.9895 16.7299C33.2037 15.7645 33.3108 15.2817 33.1988 14.8271C33.1779 14.7423 33.1514 14.6589 33.1196 14.5776C32.9491 14.1414 32.5834 13.8087 31.8519 13.1432L31.3696 12.7044C29.9246 11.3897 29.202 10.7324 29.4102 10.1134C29.6184 9.49439 30.5913 9.40726 32.5371 9.23299L32.7521 9.21374C33.941 9.10727 34.5354 9.05403 34.9883 8.71734C35.4411 8.38065 35.6633 7.82672 36.1077 6.71885L36.1443 6.62753Z" fill="#D1A403" stroke="#D1A403" stroke-width="2"/>
<path d="M62.1443 6.62753C62.931 4.66653 63.3243 3.68604 64.0006 3.68604C64.6769 3.68604 65.0702 4.66653 65.8568 6.62753L65.8934 6.71885C66.3378 7.82672 66.56 8.38065 67.0129 8.71734C67.4657 9.05403 68.0602 9.10727 69.2491 9.21374L69.464 9.23299C71.4099 9.40726 72.3828 9.49439 72.5909 10.1134C72.7991 10.7324 72.0766 11.3897 70.6316 12.7044L70.1493 13.1432C69.4178 13.8087 69.052 14.1414 68.8815 14.5776C68.8497 14.6589 68.8233 14.7423 68.8024 14.8271C68.6903 15.2817 68.7975 15.7645 69.0117 16.7299L69.0783 17.0305C69.472 18.8048 69.6688 19.692 69.3252 20.0746C69.1967 20.2176 69.0298 20.3206 68.8444 20.3712C68.3482 20.5066 67.6437 19.9325 66.2348 18.7844C65.3096 18.0305 64.847 17.6536 64.3159 17.5688C64.107 17.5354 63.8941 17.5354 63.6852 17.5688C63.1541 17.6536 62.6915 18.0305 61.7664 18.7844C60.3574 19.9325 59.6529 20.5066 59.1567 20.3712C58.9713 20.3206 58.8044 20.2176 58.676 20.0746C58.3323 19.692 58.5292 18.8048 58.9228 17.0305L58.9895 16.7299C59.2037 15.7645 59.3108 15.2817 59.1988 14.8271C59.1779 14.7423 59.1514 14.6589 59.1196 14.5776C58.9491 14.1414 58.5834 13.8087 57.8519 13.1432L57.3696 12.7044C55.9246 11.3897 55.202 10.7324 55.4102 10.1134C55.6184 9.49439 56.5913 9.40726 58.5371 9.23299L58.7521 9.21374C59.941 9.10727 60.5354 9.05403 60.9883 8.71734C61.4411 8.38065 61.6633 7.82672 62.1077 6.71885L62.1443 6.62753Z" fill="#D1A403" stroke="#D1A403" stroke-width="2"/>
<path d="M88.2291 6.80792C88.99 4.83682 89.3705 3.85127 90.0467 3.84244C90.723 3.83361 91.1291 4.80889 91.9412 6.75945L91.979 6.85027C92.4378 7.95224 92.6673 8.50323 93.1245 8.83398C93.5817 9.16472 94.1768 9.21019 95.367 9.30113L95.5822 9.31758C97.5301 9.46641 98.504 9.54083 98.7203 10.157C98.9365 10.7733 98.2227 11.44 96.7949 12.7734L96.3184 13.2185C95.5956 13.8935 95.2343 14.231 95.0695 14.6693C95.0388 14.7511 95.0134 14.8348 94.9936 14.9198C94.8875 15.3759 95.0009 15.8572 95.2277 16.8198L95.2983 17.1194C95.7151 18.8885 95.9235 19.773 95.5849 20.1601C95.4583 20.3048 95.2928 20.4099 95.108 20.4629C94.6136 20.6048 93.9017 20.04 92.4779 18.9104C91.543 18.1686 91.0755 17.7978 90.5433 17.7199C90.334 17.6893 90.1211 17.6921 89.9127 17.7281C89.3827 17.8199 88.9251 18.2028 88.0099 18.9687C86.616 20.1351 85.9191 20.7183 85.4212 20.5894C85.2351 20.5412 85.0669 20.4405 84.9366 20.2992C84.588 19.921 84.7732 19.0314 85.1437 17.252L85.2064 16.9507C85.408 15.9825 85.5088 15.4984 85.3908 15.0452C85.3688 14.9607 85.3413 14.8777 85.3084 14.7968C85.1323 14.3629 84.7622 14.035 84.0221 13.3791L83.5341 12.9466C82.072 11.6509 81.3409 11.0031 81.541 10.3814C81.7411 9.75976 82.7128 9.65993 84.6562 9.46027L84.8708 9.43821C86.0583 9.31622 86.652 9.25522 87.1004 8.91265C87.5488 8.57008 87.7637 8.01329 88.1936 6.89971L88.2291 6.80792Z" fill="#D1A403" stroke="#D1A403" stroke-width="2"/>
<path d="M114.455 6.62753C115.241 4.66653 115.635 3.68604 116.311 3.68604C116.987 3.68604 117.381 4.66653 118.167 6.62753L118.204 6.71885C118.648 7.82672 118.871 8.38065 119.323 8.71734C119.776 9.05403 120.371 9.10727 121.56 9.21374L121.775 9.23299C123.72 9.40726 124.693 9.49439 124.901 10.1134C125.11 10.7324 124.387 11.3897 122.942 12.7044L122.46 13.1432C121.728 13.8087 121.363 14.1414 121.192 14.5776C121.16 14.6589 121.134 14.7423 121.113 14.8271C121.001 15.2817 121.108 15.7645 121.322 16.7299L121.389 17.0305C121.783 18.8048 121.979 19.692 121.636 20.0746C121.507 20.2176 121.34 20.3206 121.155 20.3712C120.659 20.5066 119.954 19.9325 118.545 18.7844C117.62 18.0305 117.158 17.6536 116.626 17.5688C116.418 17.5354 116.205 17.5354 115.996 17.5688C115.465 17.6536 115.002 18.0305 114.077 18.7844C112.668 19.9325 111.963 20.5066 111.467 20.3712C111.282 20.3206 111.115 20.2176 110.987 20.0746C110.643 19.692 110.84 18.8048 111.233 17.0305L111.3 16.7299C111.514 15.7645 111.621 15.2817 111.509 14.8271C111.488 14.7423 111.462 14.6589 111.43 14.5776C111.26 14.1414 110.894 13.8087 110.162 13.1432L109.68 12.7044C108.235 11.3897 107.513 10.7324 107.721 10.1134C107.929 9.49439 108.902 9.40726 110.848 9.23299L111.063 9.21374C112.252 9.10727 112.846 9.05403 113.299 8.71734C113.752 8.38065 113.974 7.82672 114.418 6.71885L114.455 6.62753Z" stroke="#D1A403" stroke-width="2"/>
</svg>
