<svg width="53" height="62" viewBox="0 0 53 62" fill="none" xmlns="http://www.w3.org/2000/svg">
<circle cx="25" cy="37" r="24.5" fill="white" stroke="#84CBB2"/>
<path d="M15.5633 39.3853L24.3153 47.6068C24.6398 47.9116 24.802 48.064 25 48.064C25.198 48.064 25.3602 47.9116 25.6847 47.6068L25.6847 47.6068L34.4367 39.3853C36.8819 37.0882 37.1788 33.3082 35.1223 30.6576L34.7356 30.1592C32.2753 26.9882 27.337 27.52 25.6083 31.1421C25.3641 31.6537 24.6359 31.6537 24.3917 31.1421C22.663 27.52 17.7246 26.9882 15.2644 30.1592L14.8777 30.6576C12.8212 33.3083 13.1181 37.0882 15.5633 39.3853Z" stroke="#0A8F60" stroke-width="2"/>
<circle cx="40.5" cy="12.5" r="12.5" fill="#D1A403"/>
<path d="M39.408 12.184C39.408 13.096 39.464 13.8 39.576 14.296C39.688 14.784 39.836 15.12 40.02 15.304C40.204 15.488 40.408 15.58 40.632 15.58C40.848 15.58 41.048 15.488 41.232 15.304C41.416 15.112 41.564 14.772 41.676 14.284C41.788 13.788 41.844 13.088 41.844 12.184C41.844 11.264 41.788 10.556 41.676 10.06C41.564 9.564 41.416 9.224 41.232 9.04C41.048 8.848 40.848 8.752 40.632 8.752C40.408 8.752 40.204 8.848 40.02 9.04C39.836 9.224 39.688 9.564 39.576 10.06C39.464 10.548 39.408 11.256 39.408 12.184ZM40.632 8.164C41.088 8.164 41.52 8.3 41.928 8.572C42.336 8.836 42.664 9.264 42.912 9.856C43.168 10.44 43.296 11.216 43.296 12.184C43.296 13.136 43.168 13.908 42.912 14.5C42.664 15.084 42.336 15.508 41.928 15.772C41.52 16.036 41.088 16.168 40.632 16.168C40.168 16.168 39.732 16.036 39.324 15.772C38.916 15.508 38.584 15.084 38.328 14.5C38.08 13.908 37.956 13.136 37.956 12.184C37.956 11.216 38.08 10.44 38.328 9.856C38.584 9.264 38.916 8.836 39.324 8.572C39.732 8.3 40.168 8.164 40.632 8.164Z" fill="white"/>
</svg>
