<svg width="38" height="77" viewBox="0 0 38 77" fill="none" xmlns="http://www.w3.org/2000/svg">
<path d="M0 0H38V62C38 70.2843 31.2843 77 23 77H15C6.71573 77 0 70.2843 0 62V0Z" fill="#0A8F60"/>
<path d="M13.912 45.8716H13.066L13.066 40.5076H13.912L14.074 42.0016C14.818 42.0136 15.574 42.0256 16.342 42.0376C17.098 42.0376 17.866 42.0376 18.646 42.0376H19.42C20.176 42.0376 20.938 42.0376 21.706 42.0376C22.462 42.0256 23.224 42.0136 23.992 42.0016L24.154 40.5076H25L25 45.8716H24.154L23.992 44.4136C23.236 44.3896 22.468 44.3776 21.688 44.3776C20.908 44.3776 20.128 44.3776 19.348 44.3776V49.2556C20.212 49.2556 21.022 49.2556 21.778 49.2556C22.534 49.2436 23.272 49.2316 23.992 49.2196L24.154 47.7436H25V53.1076H24.154L23.992 51.6136C23.248 51.5896 22.492 51.5776 21.724 51.5776C20.956 51.5776 20.188 51.5776 19.42 51.5776H18.646C17.89 51.5776 17.134 51.5776 16.378 51.5776C15.61 51.5776 14.842 51.5896 14.074 51.6136L13.912 53.1076H13.066V47.7436H13.912L14.074 49.2196C14.818 49.2316 15.562 49.2436 16.306 49.2556C17.05 49.2556 17.752 49.2556 18.412 49.2556V44.3776C17.668 44.3776 16.936 44.3776 16.216 44.3776C15.496 44.3776 14.782 44.3896 14.074 44.4136L13.912 45.8716ZM25.252 35.2353C25.252 36.0513 25.072 36.7893 24.712 37.4493C24.352 38.0973 23.83 38.6133 23.146 38.9973C22.462 39.3813 21.646 39.5733 20.698 39.5733C19.738 39.5733 18.916 39.3753 18.232 38.9793C17.548 38.5713 17.026 38.0373 16.666 37.3773C16.306 36.7173 16.126 36.0033 16.126 35.2353C16.126 34.4673 16.306 33.7533 16.666 33.0933C17.026 32.4333 17.548 31.8993 18.232 31.4913C18.904 31.0833 19.726 30.8793 20.698 30.8793C21.658 30.8793 22.48 31.0773 23.164 31.4733C23.836 31.8573 24.352 32.3793 24.712 33.0393C25.072 33.6873 25.252 34.4193 25.252 35.2353ZM24.37 35.2353C24.37 34.5873 24.07 34.0953 23.47 33.7593C22.87 33.4113 21.952 33.2373 20.716 33.2373C18.244 33.2373 17.008 33.9033 17.008 35.2353C17.008 36.5553 18.244 37.2153 20.716 37.2153C21.952 37.2153 22.87 37.0473 23.47 36.7113C24.07 36.3753 24.37 35.8833 24.37 35.2353ZM25.252 26.5272C25.252 27.2472 25.072 27.8112 24.712 28.2192C24.352 28.6272 23.776 28.8312 22.984 28.8312C22.708 28.8312 22.45 28.8312 22.21 28.8312C21.958 28.8192 21.658 28.8132 21.31 28.8132L17.476 28.8132V30.1452H16.54L16.36 28.6872L13.894 28.0032V26.5452L16.378 26.6172L16.378 24.4572H17.476L17.476 26.6352L22.786 26.6352C23.23 26.6352 23.554 26.5512 23.758 26.3832C23.962 26.2032 24.064 25.9692 24.064 25.6812C24.064 25.3572 23.914 24.9912 23.614 24.5832L24.064 24.1512C24.436 24.3792 24.73 24.6912 24.946 25.0872C25.15 25.4832 25.252 25.9632 25.252 26.5272Z" fill="white"/>
</svg>
