<svg width="68" height="49" viewBox="0 0 68 49" fill="none" xmlns="http://www.w3.org/2000/svg">
<path d="M59.1991 32.97C59.3664 19.1642 55.4937 0.365314 41.6876 0.197982C27.8815 0.0306505 25.1323 18.1227 24.9649 31.9286C24.7976 45.7344 27.7606 4.00378 41.5667 4.17112C55.3728 4.33845 59.0318 46.7758 59.1991 32.97Z" fill="#0A8F60"/>
<path d="M17.25 23.0205C17.25 36.8273 28.4429 48.02 42.25 48.02C56.0571 48.02 67.25 36.8273 67.25 23.0205C67.25 9.21366 56.0571 28.1454 42.25 28.1454C28.4429 28.1454 17.25 9.21366 17.25 23.0205Z" fill="#D1A403"/>
<path d="M41.9491 32.97C42.1164 19.1642 38.2437 0.365314 24.4376 0.197982C10.6315 0.0306505 7.88227 18.1227 7.71493 31.9286C7.5476 45.7344 10.5106 4.00378 24.3167 4.17112C38.1228 4.33845 41.7818 46.7758 41.9491 32.97Z" fill="#D1A403"/>
<path d="M0 23.0205C0 36.8273 11.1929 48.02 25 48.02C38.8071 48.02 50 36.8273 50 23.0205C50 9.21366 38.8071 28.1454 25 28.1454C11.1929 28.1454 0 9.21366 0 23.0205Z" fill="#0A8F60"/>
</svg>
