<svg width="151" height="151" viewBox="0 0 151 151" fill="none" xmlns="http://www.w3.org/2000/svg">
<circle cx="75.5" cy="75.5" r="74" fill="white" stroke="#0A8F60" stroke-width="2" stroke-dasharray="3 15"/>
<path d="M80.5351 35.3656C79.8109 35.4922 78.5453 35.8719 77.9336 36.1531C76.7734 36.6875 76.1195 37.2922 74.6218 39.2328C73.2789 40.9625 73.2859 40.9625 70.8671 41.1875C69.0601 41.3562 68.1179 41.5953 65.9101 42.4531C62.7531 43.6906 62.1203 43.7328 61.4312 42.7906C61.0656 42.2844 60.8406 42.3547 59.6875 43.4375C58.1406 44.8719 56.5164 46.2078 56.0453 46.4609C55.3281 46.8265 53.1273 49.0906 52.7476 49.85C52.6562 50.0328 52.5859 50.314 52.5859 50.4828C52.5859 51.3265 53.1414 52.2265 53.7601 52.3812C54.4914 52.564 54.8359 53.689 54.8359 55.9109C54.8359 56.8672 54.8289 56.9234 54.5898 57.3312C54.2875 57.8656 53.9992 57.9922 53.1484 57.9781C52.6421 57.964 52.2273 57.8375 51.4257 57.4578C50.125 56.825 48.8453 56.4031 46.2578 55.7422C42.8546 54.8844 41.0476 54.2094 39.5078 53.2109C38.9875 52.8734 38.2281 52.4094 37.8203 52.1703C37.4125 51.9312 36.8078 51.4953 36.4843 51.2C35.0429 49.864 32.1882 48.4297 29.3125 47.5859C27.0625 46.925 26.0289 46.3062 25.5578 45.3359C25.164 44.5203 25.0937 44.464 24.1726 44.225C22.9351 43.8875 22.5273 43.6203 21.0929 42.1719C20.0171 41.1031 19.3984 40.6812 18.5406 40.4844C17.8164 40.3156 17.3734 40.0906 16.3398 39.3594C15.5664 38.8109 15.271 38.839 14.5187 39.5844C13.4359 40.625 12.7679 42.9172 13.0914 44.4219C13.239 45.1109 13.8085 46.3484 14.125 46.6719C14.5328 47.0797 14.8492 47.1922 16.7265 47.5859C19.5953 48.1765 19.757 48.275 21.789 50.314C23.9054 52.4375 25.3328 53.4922 27.6812 54.6875C28.4265 55.0672 30.1703 56.1359 31.5484 57.064C32.9265 57.9781 35.4648 59.6375 37.1875 60.7344C40.4921 62.8437 42.1726 63.9969 44.4648 65.6984C45.8148 66.6969 46.6867 67.2453 47.5234 67.625C48.1492 67.9062 49.0421 68.5812 50.0054 69.4812C50.8843 70.2969 51.5453 70.6906 52.5648 71.014C53.1765 71.1969 53.4718 71.5625 53.7109 72.4203C53.9781 73.3765 54.196 73.8969 54.5336 74.375C54.9835 75.0219 55.0961 75.5844 55.1875 77.5953C55.2648 79.4797 55.3843 81.0547 55.6515 83.9375C56.0593 88.2406 57.332 99.7437 57.6203 101.656C58.1757 105.397 59.0054 109.25 59.4695 110.277C59.7859 110.98 60.0742 111.261 60.9671 111.767C63.9343 113.427 66.8593 114.228 72.0625 114.805C75.7961 115.212 76.3937 115.297 77.1882 115.536C77.9125 115.747 78.1726 115.761 79.6843 115.606C82.9046 115.283 84.8593 114.819 86.9336 113.891C88.5296 113.173 88.4875 113.202 91.1523 110.895C91.7359 110.403 92.3125 109.939 92.439 109.883C92.6078 109.812 92.7414 109.587 92.9382 109.053C93.3179 108.027 93.5851 107.619 94.0351 107.366C94.3093 107.197 94.464 107.014 94.5976 106.662C94.6961 106.409 94.7734 106.142 94.7734 106.072C94.7734 105.481 95.9265 99.3078 97.9164 89.2109C100.644 75.4156 101.087 72.9828 101.734 68.5391C102.17 65.5015 102.332 64.1516 102.543 61.5078C102.873 57.4859 103.077 52.1562 102.972 50.4265C102.93 49.8078 102.88 49.5687 102.754 49.4C102.318 48.8234 95.7789 44.3094 93.5429 43.0297C91.6656 41.9609 90.864 41.8203 88.0234 42.0312C87.2429 42.0875 87.1093 42.0594 86.8281 41.7922C86.4836 41.4828 86.1601 40.8781 85.6117 39.514C85.0281 38.0937 83.8468 36.4906 82.8343 35.7453C82.3562 35.3797 81.3929 35.225 80.5351 35.3656ZM72.9765 44.8578C73.4125 45.0547 73.5671 45.4062 73.8203 46.7C74.3476 49.4703 75.0929 50.7781 76.5625 51.5234C77.2234 51.8609 77.6031 52.2406 77.4976 52.4515C77.4695 52.5078 77.1531 52.6344 76.8086 52.7187C74.6781 53.1969 67.6046 52.339 65.5164 51.3265C64.5671 50.8765 63.7726 50.6234 62.2257 50.3281C59.9687 49.8781 58.9843 49.4984 58.9843 49.0765C58.9843 48.4859 60.039 47.9515 64.2648 46.3765C65.7484 45.8281 67.2812 45.2515 67.6679 45.1109C68.0546 44.9562 68.6875 44.7734 69.0742 44.7031C69.925 44.5484 72.5336 44.6469 72.9765 44.8578ZM89.289 46.1937C92.2632 46.9672 97.9515 49.3437 99.1679 50.3281L99.3789 50.4969L99.1961 50.6937C98.2257 51.7062 94.9562 52.3812 89.289 52.7328C86.1601 52.9156 84.3882 52.789 84.1492 52.3531C83.9453 51.9734 83.9875 51.7906 84.3882 51.3406C84.9226 50.7359 85.3164 49.9062 85.914 48.1625C86.2023 47.3047 86.5257 46.5031 86.6312 46.3484C87.0039 45.8 87.6226 45.7578 89.289 46.1937ZM24.4328 48.5703C24.8125 48.6828 25.9445 48.9359 26.95 49.1328C30.6484 49.8781 33.8757 51.2281 36.0484 52.9437C36.4984 53.2953 37.525 54.0547 38.3195 54.6031C39.121 55.1656 39.9789 55.8547 40.239 56.15C40.8648 56.8531 41.6312 58.1047 42.1515 59.2719C43.0445 61.2969 42.946 61.5219 41.5398 60.6781C41.0968 60.4109 40.2179 59.9047 39.5781 59.5531C38.9382 59.2015 37.4828 58.2875 36.3437 57.514C35.2046 56.7406 33.3203 55.475 32.1601 54.6875C31 53.9 29.1507 52.7047 28.0468 52.0156C24.5734 49.864 23.5468 49.0625 23.5468 48.4719C23.5468 48.3172 23.6171 48.3312 24.4328 48.5703ZM56.8398 50.6515C57.7468 51.875 59.0265 52.5078 63.1679 53.8297C65.6007 54.6172 66.6765 54.8562 68.9335 55.1797C72.5054 55.6719 73.4195 55.7 78.9882 55.5453C92.5093 55.1515 95.2093 55.0109 96.707 54.6172C97.614 54.364 98.0851 54.35 98.4507 54.5609C99.4773 55.1234 97.5507 55.8969 92.1367 57.0781C89.0289 57.7531 87.6015 57.95 83.8609 58.2734C78.0671 58.7515 73.0468 58.6812 70.9304 58.0765C69.1304 57.5562 67.8789 57.3453 65.6289 57.2187C62.1765 57.0078 60.7211 56.4875 58.914 54.814C57.9789 53.9562 57.4937 53.7031 56.7273 53.7031C55.9539 53.7031 55.9257 53.6609 55.975 52.114C56.0453 50.1031 56.214 49.8078 56.8398 50.6515ZM78.7281 52.1281C78.7773 52.4094 78.4187 53.0281 78.2289 52.9719C78.032 52.9156 77.9125 52.5078 78.0109 52.1984C78.1515 51.7344 78.6437 51.6922 78.7281 52.1281ZM101.875 52.789C102.121 53.3937 101.685 54.2234 100.806 54.8422C100.082 55.3484 99.7796 55.3625 99.4211 54.8984C99.0554 54.4484 99.0414 54.364 99.2242 54.0265C99.4351 53.6469 99.9062 53.3094 100.764 52.9297C101.643 52.5359 101.762 52.5219 101.875 52.789ZM101.798 56.3187C102.037 56.9234 101.994 57.9219 101.559 62.4219C101.228 65.7969 100.673 70.2969 100.462 71.3234C100.054 73.2781 99.7445 74.9094 98.9921 79.0859C97.4523 87.6359 97.0937 89.5484 96.5382 92.3609C95.3922 98.0703 94.2953 102.514 93.5007 104.652C93.107 105.692 92.1015 107.295 91.6656 107.548C91.5109 107.647 90.8429 108.195 90.182 108.786C87.7492 110.923 86.2023 111.894 84.4023 112.4C82.8273 112.85 82.1664 112.934 79.7265 113.005C77.5539 113.061 77.0054 113.033 75.5078 112.766C74.5586 112.611 72.5968 112.287 71.1484 112.062C66.9718 111.402 65.6429 110.966 64.1523 109.784C63.0976 108.941 62.8937 108.842 61.9515 108.687C61.4453 108.603 61.0093 108.462 60.8828 108.336C60.5804 108.027 60.2851 107.084 59.6804 104.455C58.6187 99.9125 58.2601 97.2687 57.2335 86.4687C57.0367 84.4156 56.8468 82.3203 56.8046 81.8C56.6851 80.2672 56.5234 76.2453 56.5234 74.7687V73.4187L57.6343 73.3625C58.8156 73.3062 59.0546 73.1937 59.1882 72.5891C59.3078 72.0547 59.2867 71.8297 58.8789 69.4109C58.675 68.1594 58.4289 66.4437 58.3445 65.5859C58.2601 64.7422 58.1195 63.7156 58.0351 63.3078C57.8242 62.3797 57.2898 61.2266 56.8679 60.8047C56.5023 60.425 56.3195 59.8062 56.1789 58.5125C55.989 56.6844 56.1226 56.3187 56.896 56.6422C57.3039 56.8109 57.7679 57.1765 59.4062 58.625C60.6929 59.764 61.9023 60.1719 64.0328 60.1719C65.5164 60.1719 67.4711 60.4531 70.0585 61.0297C71.1062 61.2547 72.4492 61.5078 73.0468 61.6062C75.0086 61.8734 83.0523 61.55 87.5664 61.0156C89.1554 60.8328 89.7039 60.7203 93.789 59.8203C95.7015 59.3984 97.7546 58.9906 98.3382 58.9203C99.639 58.7515 99.8148 58.625 100.574 57.2328C101.038 56.389 101.319 56.0375 101.608 55.9672C101.636 55.9531 101.72 56.1219 101.798 56.3187ZM46.3281 58.2734C46.6515 58.4 47.0031 58.5969 47.1015 58.6953C47.2703 58.8781 47.2703 58.8922 47.1367 59.0047C47.0593 59.0609 46.307 59.1172 45.4632 59.1172H43.9234L43.7476 58.7094C43.5789 58.3015 43.5718 58.2875 43.6984 58.0906C43.8742 57.8375 45.4703 57.95 46.3281 58.2734ZM45.7234 62.0844C46.1734 62.3937 46.539 63.0969 46.539 63.6734C46.539 64.0672 46.5179 64.1094 46.3281 64.1094C46.0679 64.1094 45.2664 63.5187 44.9851 63.1109C44.8726 62.9562 44.746 62.689 44.7039 62.5344C44.5351 61.8875 45.0835 61.6484 45.7234 62.0844ZM48.9789 62.1406C49.3585 62.4781 49.914 63.5187 50.3078 64.6156C51.0531 66.6969 50.8703 66.8797 49.1968 65.7969C48.121 65.0937 48.0156 64.939 48.0226 64.1937C48.0367 62.0422 48.2828 61.5078 48.9789 62.1406ZM52.9937 67.2312C53.0078 67.3719 52.9375 67.639 52.839 67.8359C52.6914 68.1312 52.6 68.2015 52.389 68.1594C52.164 68.1172 52.1289 68.075 52.1289 67.7656C52.1289 67.1187 52.9375 66.6125 52.9937 67.2312Z" fill="#0A8F60"/>
<path d="M91.5039 101.811C90.9906 102.036 89.6195 102.359 89.1906 102.359C88.1289 102.359 87.461 102.894 87.5594 103.667C87.6227 104.216 88.0164 105.031 88.3399 105.327C88.9235 105.861 89.9711 105.481 91.1172 104.328C91.6375 103.808 92.2422 102.683 92.2422 102.247C92.2422 101.966 91.9961 101.614 91.8344 101.67C91.8063 101.684 91.6586 101.741 91.5039 101.811Z" fill="#0A8F60"/>
</svg>
