<svg width="150" height="150" viewBox="0 0 150 150" fill="none" xmlns="http://www.w3.org/2000/svg">
<circle cx="75" cy="75" r="74" fill="white" stroke="#0A8F60" stroke-width="2" stroke-dasharray="3 15"/>
<mask id="path-2-inside-1_285_4383" fill="white">
<path d="M101.892 45.453V106.491C101.892 108.546 100.221 110.218 98.1654 110.218H51.8342C49.7791 110.218 48.1074 108.546 48.1074 106.491V45.453C48.1074 43.3979 49.7791 41.7262 51.8342 41.7262H72.6618C72.1194 42.3304 71.6373 42.9878 71.228 43.6937H51.8342C50.863 43.6937 50.0749 44.481 50.0749 45.453V106.491C50.0749 107.462 50.8622 108.25 51.8342 108.25H98.1654C99.1366 108.25 99.9247 107.463 99.9247 106.491V45.453C99.9247 44.4818 99.1374 43.6937 98.1654 43.6937H91.5446C91.1353 42.987 90.6532 42.3296 90.1108 41.7262H98.1654C100.221 41.7262 101.892 43.3979 101.892 45.453ZM72.9232 103.841C72.9232 104.988 73.8529 105.918 75.0002 105.918C76.1475 105.918 77.0772 104.988 77.0772 103.841C77.0772 102.694 76.1475 101.764 75.0002 101.764C73.8529 101.764 72.9232 102.694 72.9232 103.841ZM71.6107 49.557C71.6107 47.8728 72.0396 46.2865 72.7925 44.9013C73.0938 44.3472 73.4475 43.8252 73.8459 43.3423C74.0454 43.1005 74.2559 42.8688 74.4774 42.6481C76.2477 40.8779 78.691 39.7822 81.3863 39.7822C84.0808 39.7822 86.5249 40.8787 88.2952 42.6481C88.5166 42.8696 88.7272 43.1013 88.9267 43.3423C89.3259 43.8252 89.6788 44.3472 89.9801 44.9013C90.7338 46.2865 91.1619 47.8721 91.1619 49.557C91.1619 50.0274 91.1282 50.4946 91.0625 50.9555C90.8637 52.3376 90.3722 53.6618 89.6107 54.8443L82.9515 65.2061C82.7809 65.4721 82.5477 65.6858 82.2785 65.8321C82.0092 65.9793 81.704 66.0591 81.3879 66.0591C80.7555 66.0591 80.1662 65.7374 79.8242 65.2053L73.1634 54.8428C73.1587 54.8357 73.1548 54.8294 73.1501 54.8224C72.1429 53.2509 71.6107 51.4314 71.6107 49.557ZM77.3778 49.5695C77.3778 49.8458 77.4059 50.1158 77.4592 50.3764C77.593 51.0283 77.8857 51.6231 78.2942 52.1185C78.4578 52.3165 78.6401 52.4988 78.8381 52.6624C79.0361 52.826 79.2506 52.9708 79.4775 53.0944C80.0457 53.4035 80.696 53.5788 81.3871 53.5788C82.0781 53.5788 82.7285 53.4035 83.2966 53.0944C83.5236 52.9708 83.738 52.826 83.936 52.6624C84.134 52.4988 84.3164 52.3165 84.4799 52.1185C84.8885 51.6231 85.1812 51.0283 85.315 50.3764C85.3682 50.1158 85.3964 49.8458 85.3964 49.5695C85.3964 47.3587 83.5987 45.561 81.3879 45.561C79.1762 45.561 77.3778 47.3594 77.3778 49.5695ZM92.3436 77.1369C91.9202 76.7973 91.3012 76.8661 90.9607 77.2903C90.6461 77.684 90.6821 78.2443 91.0265 78.5941C91.2151 78.7898 91.4725 78.8931 91.7339 78.8931C91.921 78.8931 92.1112 78.8399 92.2786 78.728C92.731 78.4259 92.8531 77.8154 92.5518 77.3639C92.4954 77.2786 92.4226 77.1995 92.3436 77.1369ZM60.6526 55.9439C61.1958 55.9439 61.6364 55.5033 61.6364 54.9601C61.6364 54.9054 61.6309 54.8451 61.6223 54.7919C61.5331 54.2558 61.0228 53.8934 60.4899 53.9834C59.9757 54.0695 59.6212 54.5391 59.6728 55.0509C59.7182 55.551 60.1392 55.9439 60.6526 55.9439ZM62.5004 63.3215C62.6037 63.3215 62.7086 63.3059 62.8111 63.2707C63.3268 63.0993 63.6054 62.5421 63.4332 62.0263C63.4184 61.9825 63.398 61.9332 63.3777 61.8917C63.1343 61.4057 62.5426 61.2093 62.0574 61.4519C61.5863 61.6874 61.3867 62.2509 61.5972 62.7275C61.7553 63.0938 62.1153 63.3215 62.5004 63.3215ZM61.4579 51.1449V51.1387C61.4579 50.5955 61.0173 50.1581 60.4742 50.1581C59.9311 50.1581 59.4905 50.6018 59.4905 51.1449C59.4905 51.6881 59.9311 52.1287 60.4742 52.1287C61.0173 52.1294 61.4579 51.6888 61.4579 51.1449ZM61.2834 59.7074C61.3241 59.7074 61.3656 59.7051 61.4071 59.6996C61.9463 59.6323 62.329 59.1401 62.2609 58.6008C62.2531 58.5367 62.2366 58.467 62.2163 58.4052C62.0449 57.8902 61.4869 57.6101 60.9719 57.783C60.4812 57.9466 60.2058 58.4584 60.3279 58.9522C60.4327 59.3952 60.8303 59.7074 61.2834 59.7074ZM69.6746 69.6341C69.3732 70.0864 69.4953 70.6968 69.9477 70.9981C70.0205 71.0467 70.105 71.0881 70.1879 71.1163C70.2912 71.1507 70.3961 71.1672 70.4986 71.1672C70.9111 71.1672 71.2946 70.9066 71.4323 70.4949C71.5865 70.0324 71.3783 69.5362 70.9612 69.3148C70.5206 69.0745 69.9594 69.2075 69.6746 69.6341ZM73.1916 71.1147C72.8903 71.5671 73.0124 72.1775 73.4647 72.4788C73.5375 72.5274 73.622 72.5688 73.705 72.597C73.8083 72.6315 73.9132 72.6479 74.0157 72.6479C74.4281 72.6479 74.8116 72.3873 74.9493 71.9756C75.1035 71.5131 74.8953 71.0169 74.4782 70.7954C74.0376 70.556 73.4765 70.6882 73.1916 71.1147ZM63.9247 64.7678C63.4724 65.0691 63.3503 65.6803 63.6516 66.1319C63.6876 66.1859 63.733 66.2414 63.7784 66.2868C63.9709 66.4794 64.2221 66.5748 64.4741 66.5748C64.7261 66.5748 64.9773 66.4786 65.1699 66.2868C65.5244 65.9323 65.5518 65.3743 65.252 64.9885C64.9405 64.58 64.3599 64.4798 63.9247 64.7678ZM81.4403 74.3892C81.9834 74.3892 82.424 73.9486 82.424 73.4054C82.424 72.9257 82.0812 72.5266 81.6265 72.4397C81.1468 72.3403 80.6592 72.6174 80.5004 73.0932C80.3282 73.6089 80.6068 74.1661 81.1226 74.3375C81.2235 74.3712 81.3346 74.3892 81.4403 74.3892ZM85.16 75.2594C85.7032 75.2594 86.1438 74.8188 86.1438 74.2757C86.1438 73.796 85.801 73.3968 85.3463 73.31C84.8666 73.2106 84.379 73.4876 84.2201 73.9634C84.0479 74.4792 84.3265 75.0364 84.8423 75.2078C84.9432 75.2407 85.0544 75.2594 85.16 75.2594ZM77.6986 73.6277C78.2418 73.6277 78.6824 73.1871 78.6824 72.644C78.6824 72.1642 78.3396 71.7651 77.8849 71.6782C77.4044 71.5781 76.9176 71.8567 76.7587 72.3317C76.5866 72.8474 76.8652 73.4047 77.3809 73.5761C77.4811 73.6089 77.5922 73.6277 77.6986 73.6277ZM94.8127 80.5569L94.8096 80.5515C94.5662 80.0655 93.9769 79.8706 93.4909 80.1148C93.0049 80.3574 92.8092 80.9514 93.0519 81.4374C93.2248 81.7817 93.5715 81.9813 93.9323 81.9813C94.0802 81.9813 94.2305 81.9476 94.3713 81.8772C94.8581 81.633 95.0553 81.0429 94.8127 80.5569ZM95.3332 65.5488V49.0976C95.3332 48.6703 94.9857 48.3228 94.5576 48.3228H93.0628C92.9916 47.6474 92.8546 46.9916 92.6739 46.3554H94.5576C96.0704 46.3554 97.3006 47.5856 97.3006 49.0984V88.2915C97.3006 88.2938 97.3014 88.2954 97.3014 88.2977C97.3014 88.3001 97.3006 88.3016 97.3006 88.304V97.5998C97.3006 99.1126 96.0704 100.344 94.5576 100.344H55.4412C53.9292 100.344 52.6982 99.1134 52.6982 97.5998V49.0976C52.6982 47.5856 53.9285 46.3546 55.4412 46.3546H70.0987C69.9179 46.9916 69.7802 47.6467 69.7098 48.3221H60.7207C60.7145 48.3221 60.7082 48.3236 60.7012 48.3236C60.6949 48.3236 60.6886 48.3221 60.6824 48.3221H55.4412C55.0139 48.3221 54.6665 48.6695 54.6665 49.0968V66.6875L60.23 72.3865L72.74 57.8245L73.8506 59.5517L67.2766 67.2041C67.477 67.2072 67.6789 67.2557 67.8503 67.3841C68.2698 67.694 68.3762 68.2825 68.0835 68.7208C67.8941 69.0048 67.5819 69.159 67.2641 69.159C67.0771 69.159 66.8869 69.1058 66.7194 68.9939C66.6959 68.9782 66.6678 68.9571 66.6451 68.9391C66.4518 68.7841 66.3367 68.5713 66.2952 68.3451L61.6098 73.7991L75.7155 88.2468L95.1829 65.4197L95.3332 65.5488ZM54.6665 69.5049V78.8641L58.9434 73.886L54.6665 69.5049ZM55.4412 98.3738H67.0802L74.4336 89.751L60.3232 75.2978L54.6665 81.8827V97.5975C54.6665 98.0263 55.0139 98.3738 55.4412 98.3738ZM82.8521 98.3738L75.8141 91.1652L69.6667 98.3738H82.8521ZM95.3332 85.4881C94.9387 85.4694 94.5772 85.2189 94.4449 84.8229C94.2727 84.3072 94.5506 83.7476 95.0663 83.5755C95.1547 83.5457 95.2439 83.534 95.3332 83.5301V68.2778L89.516 75.099C89.6765 75.3424 89.7391 75.6468 89.6397 75.9442C89.5019 76.3559 89.1185 76.6165 88.706 76.6165C88.6027 76.6165 88.4979 76.6008 88.3953 76.5656C88.3632 76.5547 88.3343 76.5343 88.303 76.5202L77.096 89.661L85.6014 98.373H94.5576C94.9849 98.373 95.3332 98.0255 95.3332 97.5975V85.4881Z"/>
</mask>
<path d="M101.892 45.453V106.491C101.892 108.546 100.221 110.218 98.1654 110.218H51.8342C49.7791 110.218 48.1074 108.546 48.1074 106.491V45.453C48.1074 43.3979 49.7791 41.7262 51.8342 41.7262H72.6618C72.1194 42.3304 71.6373 42.9878 71.228 43.6937H51.8342C50.863 43.6937 50.0749 44.481 50.0749 45.453V106.491C50.0749 107.462 50.8622 108.25 51.8342 108.25H98.1654C99.1366 108.25 99.9247 107.463 99.9247 106.491V45.453C99.9247 44.4818 99.1374 43.6937 98.1654 43.6937H91.5446C91.1353 42.987 90.6532 42.3296 90.1108 41.7262H98.1654C100.221 41.7262 101.892 43.3979 101.892 45.453ZM72.9232 103.841C72.9232 104.988 73.8529 105.918 75.0002 105.918C76.1475 105.918 77.0772 104.988 77.0772 103.841C77.0772 102.694 76.1475 101.764 75.0002 101.764C73.8529 101.764 72.9232 102.694 72.9232 103.841ZM71.6107 49.557C71.6107 47.8728 72.0396 46.2865 72.7925 44.9013C73.0938 44.3472 73.4475 43.8252 73.8459 43.3423C74.0454 43.1005 74.2559 42.8688 74.4774 42.6481C76.2477 40.8779 78.691 39.7822 81.3863 39.7822C84.0808 39.7822 86.5249 40.8787 88.2952 42.6481C88.5166 42.8696 88.7272 43.1013 88.9267 43.3423C89.3259 43.8252 89.6788 44.3472 89.9801 44.9013C90.7338 46.2865 91.1619 47.8721 91.1619 49.557C91.1619 50.0274 91.1282 50.4946 91.0625 50.9555C90.8637 52.3376 90.3722 53.6618 89.6107 54.8443L82.9515 65.2061C82.7809 65.4721 82.5477 65.6858 82.2785 65.8321C82.0092 65.9793 81.704 66.0591 81.3879 66.0591C80.7555 66.0591 80.1662 65.7374 79.8242 65.2053L73.1634 54.8428C73.1587 54.8357 73.1548 54.8294 73.1501 54.8224C72.1429 53.2509 71.6107 51.4314 71.6107 49.557ZM77.3778 49.5695C77.3778 49.8458 77.4059 50.1158 77.4592 50.3764C77.593 51.0283 77.8857 51.6231 78.2942 52.1185C78.4578 52.3165 78.6401 52.4988 78.8381 52.6624C79.0361 52.826 79.2506 52.9708 79.4775 53.0944C80.0457 53.4035 80.696 53.5788 81.3871 53.5788C82.0781 53.5788 82.7285 53.4035 83.2966 53.0944C83.5236 52.9708 83.738 52.826 83.936 52.6624C84.134 52.4988 84.3164 52.3165 84.4799 52.1185C84.8885 51.6231 85.1812 51.0283 85.315 50.3764C85.3682 50.1158 85.3964 49.8458 85.3964 49.5695C85.3964 47.3587 83.5987 45.561 81.3879 45.561C79.1762 45.561 77.3778 47.3594 77.3778 49.5695ZM92.3436 77.1369C91.9202 76.7973 91.3012 76.8661 90.9607 77.2903C90.6461 77.684 90.6821 78.2443 91.0265 78.5941C91.2151 78.7898 91.4725 78.8931 91.7339 78.8931C91.921 78.8931 92.1112 78.8399 92.2786 78.728C92.731 78.4259 92.8531 77.8154 92.5518 77.3639C92.4954 77.2786 92.4226 77.1995 92.3436 77.1369ZM60.6526 55.9439C61.1958 55.9439 61.6364 55.5033 61.6364 54.9601C61.6364 54.9054 61.6309 54.8451 61.6223 54.7919C61.5331 54.2558 61.0228 53.8934 60.4899 53.9834C59.9757 54.0695 59.6212 54.5391 59.6728 55.0509C59.7182 55.551 60.1392 55.9439 60.6526 55.9439ZM62.5004 63.3215C62.6037 63.3215 62.7086 63.3059 62.8111 63.2707C63.3268 63.0993 63.6054 62.5421 63.4332 62.0263C63.4184 61.9825 63.398 61.9332 63.3777 61.8917C63.1343 61.4057 62.5426 61.2093 62.0574 61.4519C61.5863 61.6874 61.3867 62.2509 61.5972 62.7275C61.7553 63.0938 62.1153 63.3215 62.5004 63.3215ZM61.4579 51.1449V51.1387C61.4579 50.5955 61.0173 50.1581 60.4742 50.1581C59.9311 50.1581 59.4905 50.6018 59.4905 51.1449C59.4905 51.6881 59.9311 52.1287 60.4742 52.1287C61.0173 52.1294 61.4579 51.6888 61.4579 51.1449ZM61.2834 59.7074C61.3241 59.7074 61.3656 59.7051 61.4071 59.6996C61.9463 59.6323 62.329 59.1401 62.2609 58.6008C62.2531 58.5367 62.2366 58.467 62.2163 58.4052C62.0449 57.8902 61.4869 57.6101 60.9719 57.783C60.4812 57.9466 60.2058 58.4584 60.3279 58.9522C60.4327 59.3952 60.8303 59.7074 61.2834 59.7074ZM69.6746 69.6341C69.3732 70.0864 69.4953 70.6968 69.9477 70.9981C70.0205 71.0467 70.105 71.0881 70.1879 71.1163C70.2912 71.1507 70.3961 71.1672 70.4986 71.1672C70.9111 71.1672 71.2946 70.9066 71.4323 70.4949C71.5865 70.0324 71.3783 69.5362 70.9612 69.3148C70.5206 69.0745 69.9594 69.2075 69.6746 69.6341ZM73.1916 71.1147C72.8903 71.5671 73.0124 72.1775 73.4647 72.4788C73.5375 72.5274 73.622 72.5688 73.705 72.597C73.8083 72.6315 73.9132 72.6479 74.0157 72.6479C74.4281 72.6479 74.8116 72.3873 74.9493 71.9756C75.1035 71.5131 74.8953 71.0169 74.4782 70.7954C74.0376 70.556 73.4765 70.6882 73.1916 71.1147ZM63.9247 64.7678C63.4724 65.0691 63.3503 65.6803 63.6516 66.1319C63.6876 66.1859 63.733 66.2414 63.7784 66.2868C63.9709 66.4794 64.2221 66.5748 64.4741 66.5748C64.7261 66.5748 64.9773 66.4786 65.1699 66.2868C65.5244 65.9323 65.5518 65.3743 65.252 64.9885C64.9405 64.58 64.3599 64.4798 63.9247 64.7678ZM81.4403 74.3892C81.9834 74.3892 82.424 73.9486 82.424 73.4054C82.424 72.9257 82.0812 72.5266 81.6265 72.4397C81.1468 72.3403 80.6592 72.6174 80.5004 73.0932C80.3282 73.6089 80.6068 74.1661 81.1226 74.3375C81.2235 74.3712 81.3346 74.3892 81.4403 74.3892ZM85.16 75.2594C85.7032 75.2594 86.1438 74.8188 86.1438 74.2757C86.1438 73.796 85.801 73.3968 85.3463 73.31C84.8666 73.2106 84.379 73.4876 84.2201 73.9634C84.0479 74.4792 84.3265 75.0364 84.8423 75.2078C84.9432 75.2407 85.0544 75.2594 85.16 75.2594ZM77.6986 73.6277C78.2418 73.6277 78.6824 73.1871 78.6824 72.644C78.6824 72.1642 78.3396 71.7651 77.8849 71.6782C77.4044 71.5781 76.9176 71.8567 76.7587 72.3317C76.5866 72.8474 76.8652 73.4047 77.3809 73.5761C77.4811 73.6089 77.5922 73.6277 77.6986 73.6277ZM94.8127 80.5569L94.8096 80.5515C94.5662 80.0655 93.9769 79.8706 93.4909 80.1148C93.0049 80.3574 92.8092 80.9514 93.0519 81.4374C93.2248 81.7817 93.5715 81.9813 93.9323 81.9813C94.0802 81.9813 94.2305 81.9476 94.3713 81.8772C94.8581 81.633 95.0553 81.0429 94.8127 80.5569ZM95.3332 65.5488V49.0976C95.3332 48.6703 94.9857 48.3228 94.5576 48.3228H93.0628C92.9916 47.6474 92.8546 46.9916 92.6739 46.3554H94.5576C96.0704 46.3554 97.3006 47.5856 97.3006 49.0984V88.2915C97.3006 88.2938 97.3014 88.2954 97.3014 88.2977C97.3014 88.3001 97.3006 88.3016 97.3006 88.304V97.5998C97.3006 99.1126 96.0704 100.344 94.5576 100.344H55.4412C53.9292 100.344 52.6982 99.1134 52.6982 97.5998V49.0976C52.6982 47.5856 53.9285 46.3546 55.4412 46.3546H70.0987C69.9179 46.9916 69.7802 47.6467 69.7098 48.3221H60.7207C60.7145 48.3221 60.7082 48.3236 60.7012 48.3236C60.6949 48.3236 60.6886 48.3221 60.6824 48.3221H55.4412C55.0139 48.3221 54.6665 48.6695 54.6665 49.0968V66.6875L60.23 72.3865L72.74 57.8245L73.8506 59.5517L67.2766 67.2041C67.477 67.2072 67.6789 67.2557 67.8503 67.3841C68.2698 67.694 68.3762 68.2825 68.0835 68.7208C67.8941 69.0048 67.5819 69.159 67.2641 69.159C67.0771 69.159 66.8869 69.1058 66.7194 68.9939C66.6959 68.9782 66.6678 68.9571 66.6451 68.9391C66.4518 68.7841 66.3367 68.5713 66.2952 68.3451L61.6098 73.7991L75.7155 88.2468L95.1829 65.4197L95.3332 65.5488ZM54.6665 69.5049V78.8641L58.9434 73.886L54.6665 69.5049ZM55.4412 98.3738H67.0802L74.4336 89.751L60.3232 75.2978L54.6665 81.8827V97.5975C54.6665 98.0263 55.0139 98.3738 55.4412 98.3738ZM82.8521 98.3738L75.8141 91.1652L69.6667 98.3738H82.8521ZM95.3332 85.4881C94.9387 85.4694 94.5772 85.2189 94.4449 84.8229C94.2727 84.3072 94.5506 83.7476 95.0663 83.5755C95.1547 83.5457 95.2439 83.534 95.3332 83.5301V68.2778L89.516 75.099C89.6765 75.3424 89.7391 75.6468 89.6397 75.9442C89.5019 76.3559 89.1185 76.6165 88.706 76.6165C88.6027 76.6165 88.4979 76.6008 88.3953 76.5656C88.3632 76.5547 88.3343 76.5343 88.303 76.5202L77.096 89.661L85.6014 98.373H94.5576C94.9849 98.373 95.3332 98.0255 95.3332 97.5975V85.4881Z" fill="#0A8F60" stroke="#0A8F60" stroke-width="6" mask="url(#path-2-inside-1_285_4383)"/>
</svg>
